# xmcd
#
# Track frame offsets: 
#        150
#        25685
#        46897
#        65835
#        92547
#        111970
#        132005
#        160315
#        177662
#        202900
#
# Disc length: 3113 seconds
#
# Revision: 1
# Processed by: cddbd v1.5.2PL0 Copyright (c) Steve Scherf et al.
# Submitted via: ExactAudioCopy v0.99pb5
#
DISCID=830c270a
DTITLE=Pinetop Perkins - Back on Top
DYEAR=2000
DGENRE=Blues
TTITLE0=Anna Lee
TTITLE1=Down in Mississippi
TTITLE2=Kansas City
TTITLE3=Five Long Years
TTITLE4=Pinetop's Boogie Woogie
TTITLE5=Hi-Heel Sneakers
TTITLE6=How Long Blues
TTITLE7=Just a Little Bit
TTITLE8=Thinks Like a Million
TTITLE9=Pinetop's Blues
EXTD=
EXTT0=
EXTT1=
EXTT2=
EXTT3=
EXTT4=
EXTT5=
EXTT6=
EXTT7=
EXTT8=
EXTT9=
PLAYORDER=
